# xmcd
#
# Track frame offsets: 
#        150
#        17729
#        49987
#        79282
#        101636
#        123626
#        148373
#        173650
#        200807
#        223559
#
# Disc length: 3501 seconds
#
# Revision: 1
# Processed by: cddbd v1.5.2PL0 Copyright (c) Steve Scherf et al.
# Submitted via: ExactAudioCopy v1.3
#
DISCID=9a0dab0a
DTITLE=Eric Steckel - Polyphonic Prayer
DYEAR=2018
DGENRE=Blues Rock
TTITLE0=Waitin' For The Bus
TTITLE1=We're Still Friends
TTITLE2=She's 19 Years Old
TTITLE3=Can't Go Back
TTITLE4=Unforgetable
TTITLE5=Tennessee
TTITLE6=It's My Own Fault
TTITLE7=Picture Frame
TTITLE8=Through Your Eyes
TTITLE9=Make It Rain
EXTD=
EXTT0=
EXTT1=
EXTT2=
EXTT3=
EXTT4=
EXTT5=
EXTT6=
EXTT7=
EXTT8=
EXTT9=
PLAYORDER=
